<?xml version="1.0" encoding="UTF-8"?> <svg xmlns="http://www.w3.org/2000/svg" width="133.332" height="130.516" viewBox="0 0 133.332 130.516"><g id="free-consultation-icon" transform="translate(-946.054 -499.848) rotate(-21)"><g id="Group_659" data-name="Group 659" transform="translate(728.861 880.759)"><path id="Path_603" data-name="Path 603" d="M725.906,896.575v-9.819l5.325-9.2h5.186l-2.973,8.3h3.872v10.717Zm16.528,0v-9.819l5.325-9.2h5.117l-2.9,8.3h3.873v10.717Z" transform="translate(-725.906 -877.559)" fill="#012346"></path></g><g id="Group_660" data-name="Group 660" transform="translate(679.179 826.958)"><path id="Path_604" data-name="Path 604" d="M688.06,876.448l-.661,5.794,5.6.64-.3,2.619-13.518-1.547,1.045-9.134,2.125.242-.745,6.518,3.678.42.661-5.794Z" transform="translate(-679.179 -823.931)" fill="#012346"></path><path id="Path_605" data-name="Path 605" d="M692.8,864.479l-.848,1.8,4.6,2.165-1.117,2.375-12.31-5.8,1.943-4.126a7.326,7.326,0,0,1,1.113-1.737,4.5,4.5,0,0,1,1.374-1.083,3.419,3.419,0,0,1,1.583-.36,4.248,4.248,0,0,1,1.756.44,4.581,4.581,0,0,1,1.113.716,3.557,3.557,0,0,1,1.138,1.94,5.181,5.181,0,0,1,.108,1.172l6.327-.253.11.051-1.2,2.544Zm-2.776.893.828-1.758a2.412,2.412,0,0,0,.219-1.793,2.019,2.019,0,0,0-1.143-1.2,2.09,2.09,0,0,0-1.683-.141,2.413,2.413,0,0,0-1.253,1.331l-.824,1.75Z" transform="translate(-678.93 -825.013)" fill="#012346"></path><path id="Path_606" data-name="Path 606" d="M704.208,847.569l-3.864,4.038,2.776,2.655,4.516-4.719,1.532,1.466-6.337,6.623L693,848.226l6.319-6.6,1.546,1.479-4.5,4.7,2.478,2.372,3.864-4.038Z" transform="translate(-678.305 -826.031)" fill="#012346"></path><path id="Path_607" data-name="Path 607" d="M718.431,838.36l-4.945,2.6,1.788,3.4,5.781-3.043.989,1.878-8.113,4.269-6.338-12.04,8.087-4.255,1,1.893-5.755,3.029,1.6,3.036,4.946-2.6Z" transform="translate(-677.382 -826.692)" fill="#012346"></path><path id="Path_608" data-name="Path 608" d="M752.553,837.244a5.15,5.15,0,0,1-.74,1.753,4.293,4.293,0,0,1-1.228,1.219,4.433,4.433,0,0,1-1.64.634,5.716,5.716,0,0,1-1.968-.007,4.923,4.923,0,0,1-2.039-.787,4.373,4.373,0,0,1-1.347-1.481,5.68,5.68,0,0,1-.646-2.053,8.6,8.6,0,0,1,.07-2.489l.3-1.807a8.138,8.138,0,0,1,.754-2.386,5.788,5.788,0,0,1,1.309-1.735,4.559,4.559,0,0,1,1.766-.973,4.8,4.8,0,0,1,2.133-.1,5.832,5.832,0,0,1,1.917.639,4.077,4.077,0,0,1,2.048,2.714,6.391,6.391,0,0,1,.131,1.963l-2.583-.425a4.44,4.44,0,0,0-.005-1.08,2.017,2.017,0,0,0-.291-.821,1.756,1.756,0,0,0-.607-.565,2.875,2.875,0,0,0-.958-.313,1.951,1.951,0,0,0-1.941.72,3.944,3.944,0,0,0-.631,1.153,8.955,8.955,0,0,0-.41,1.622l-.3,1.826a6.055,6.055,0,0,0,.074,3.024,1.924,1.924,0,0,0,1.61,1.242,2.323,2.323,0,0,0,1.693-.276,2.489,2.489,0,0,0,.943-1.64Z" transform="translate(-675.15 -826.958)" fill="#012346"></path><path id="Path_609" data-name="Path 609" d="M768.391,842.676a7.978,7.978,0,0,1-1.439,1.965,5.558,5.558,0,0,1-1.776,1.2,4.545,4.545,0,0,1-1.987.343,4.885,4.885,0,0,1-2.077-.6,4.749,4.749,0,0,1-1.64-1.377,4.321,4.321,0,0,1-.775-1.821,5.626,5.626,0,0,1,.05-2.122,8.342,8.342,0,0,1,.843-2.277l.931-1.749a8.459,8.459,0,0,1,1.423-1.974,5.65,5.65,0,0,1,1.735-1.229,4.408,4.408,0,0,1,1.944-.379,4.681,4.681,0,0,1,2.054.587,4.864,4.864,0,0,1,1.665,1.4,4.609,4.609,0,0,1,.82,1.85,5.623,5.623,0,0,1-.012,2.149,8.026,8.026,0,0,1-.829,2.29Zm-1.41-3.017a8.031,8.031,0,0,0,.6-1.416,3.9,3.9,0,0,0,.192-1.264,2.228,2.228,0,0,0-.285-1.046,2.021,2.021,0,0,0-.835-.768,1.892,1.892,0,0,0-1.074-.25,2.054,2.054,0,0,0-.982.372,3.962,3.962,0,0,0-.9.888,9.64,9.64,0,0,0-.82,1.3l-.94,1.764a9.485,9.485,0,0,0-.618,1.4,4.057,4.057,0,0,0-.241,1.247,2.086,2.086,0,0,0,.232,1.035,1.877,1.877,0,0,0,.812.761,1.99,1.99,0,0,0,1.1.256,2.218,2.218,0,0,0,1.027-.357,4.139,4.139,0,0,0,.944-.869,7.924,7.924,0,0,0,.845-1.287Z" transform="translate(-674.155 -826.598)" fill="#012346"></path><path id="Path_610" data-name="Path 610" d="M776.421,857.875l-1.8-1.9,3.769-8.782-6.371,6.034-1.818-1.919,9.88-9.357,1.818,1.921-3.761,8.736,6.35-6,1.813,1.914Z" transform="translate(-673.422 -826.01)" fill="#012346"></path><path id="Path_611" data-name="Path 611" d="M786.025,867.757a1.834,1.834,0,0,0,.566-.4,1.629,1.629,0,0,0,.357-.64,3.207,3.207,0,0,0,.123-.934,7.652,7.652,0,0,0-.128-1.285,11.516,11.516,0,0,1-.165-1.793,6.168,6.168,0,0,1,.2-1.664,4.067,4.067,0,0,1,.669-1.4,3.25,3.25,0,0,1,1.27-1,3.322,3.322,0,0,1,1.569-.326,3.563,3.563,0,0,1,1.509.411,4.7,4.7,0,0,1,1.332,1.061,6.558,6.558,0,0,1,1.045,1.616,5.89,5.89,0,0,1,.54,1.9,4.539,4.539,0,0,1-.145,1.741,3.9,3.9,0,0,1-2.158,2.486l-1.078-2.322a2.668,2.668,0,0,0,.694-.5,1.8,1.8,0,0,0,.417-.668,1.96,1.96,0,0,0,.09-.826,2.953,2.953,0,0,0-.28-.968,3.14,3.14,0,0,0-.506-.79,2.021,2.021,0,0,0-.611-.473,1.5,1.5,0,0,0-.67-.156,1.581,1.581,0,0,0-.676.153,1.285,1.285,0,0,0-.547.465,1.9,1.9,0,0,0-.269.739,4.532,4.532,0,0,0-.04.991,11,11,0,0,0,.148,1.226,10.423,10.423,0,0,1,.122,1.839,5.585,5.585,0,0,1-.275,1.616,3.915,3.915,0,0,1-.74,1.312,3.653,3.653,0,0,1-1.255.927,3.336,3.336,0,0,1-3.083-.062,4.516,4.516,0,0,1-1.3-1.066,7.351,7.351,0,0,1-1.466-2.848,5.922,5.922,0,0,1-.189-1.262,5.4,5.4,0,0,1,.092-1.243,4.159,4.159,0,0,1,.4-1.15,3.872,3.872,0,0,1,.756-.99,4.192,4.192,0,0,1,1.149-.765l1.086,2.338a2.775,2.775,0,0,0-.868.641,1.875,1.875,0,0,0-.422.8,2.263,2.263,0,0,0-.019.937,4.192,4.192,0,0,0,.336,1.034,3.287,3.287,0,0,0,.5.792,2.134,2.134,0,0,0,.594.482,1.45,1.45,0,0,0,1.321.024Z" transform="translate(-672.734 -824.975)" fill="#012346"></path><path id="Path_612" data-name="Path 612" d="M799.793,884.418l-8.962.991a6.1,6.1,0,0,1-2.051-.09,4.054,4.054,0,0,1-1.588-.738,3.865,3.865,0,0,1-1.083-1.339,5.609,5.609,0,0,1-.527-1.9,5.134,5.134,0,0,1,.115-1.879,3.876,3.876,0,0,1,.766-1.508,4.132,4.132,0,0,1,1.391-1.069,5.994,5.994,0,0,1,1.985-.541l8.965-.973.287,2.611-8.964.991a3.5,3.5,0,0,0-1.926.694,1.574,1.574,0,0,0-.519,1.443,1.732,1.732,0,0,0,.829,1.391,3.307,3.307,0,0,0,2.034.3l8.966-.973Z" transform="translate(-672.452 -823.896)" fill="#012346"></path><path id="Path_613" data-name="Path 613" d="M787.469,895.209l-1.345,6.23-2.074-.449,1.9-8.8,13.3,2.875-.557,2.575Z" transform="translate(-672.546 -822.833)" fill="#012346"></path><path id="Path_614" data-name="Path 614" d="M786.482,920.931l2.153-3.6-9.842-5.884,1.352-2.261,9.841,5.883,2.124-3.553,1.837,1.1-5.63,9.417Z" transform="translate(-672.879 -821.758)" fill="#012346"></path><path id="Path_615" data-name="Path 615" d="M770.088,925.664l3.1-2.658-1.24-2.679,2.1-1.8,5.476,13.229-1.81,1.551-12.178-7.479,2.1-1.8Zm4.064-.543-2.142,1.837,4.318,2.9Z" transform="translate(-673.717 -821.167)" fill="#012346"></path><path id="Path_616" data-name="Path 616" d="M756,942.48l3.888-1.578-4.309-10.625,2.441-.99,4.31,10.624,3.836-1.556.8,1.983-10.166,4.124Z" transform="translate(-674.347 -820.486)" fill="#012346"></path><path id="Path_617" data-name="Path 617" d="M746.9,946.465l-7.854.473-.128-2.118,2.649-.158L741,935.3l-2.649.158-.126-2.107,7.853-.472.128,2.107-2.585.156.564,9.355,2.584-.156Z" transform="translate(-675.444 -820.259)" fill="#012346"></path><path id="Path_618" data-name="Path 618" d="M720.913,935.913a8.016,8.016,0,0,1,.96-2.238,5.575,5.575,0,0,1,1.459-1.573,4.557,4.557,0,0,1,1.861-.781,4.883,4.883,0,0,1,2.158.121,4.729,4.729,0,0,1,1.906.973,4.314,4.314,0,0,1,1.165,1.6,5.655,5.655,0,0,1,.428,2.08,8.422,8.422,0,0,1-.309,2.409l-.515,1.912a8.44,8.44,0,0,1-.942,2.245,5.653,5.653,0,0,1-1.415,1.587,4.383,4.383,0,0,1-1.807.806,4.671,4.671,0,0,1-2.134-.109,4.873,4.873,0,0,1-1.937-.986,4.594,4.594,0,0,1-1.214-1.618,5.623,5.623,0,0,1-.471-2.1,8.028,8.028,0,0,1,.292-2.419Zm2.052,2.623a8.126,8.126,0,0,0-.267,1.515,3.845,3.845,0,0,0,.1,1.275,2.2,2.2,0,0,0,.511.955,2.021,2.021,0,0,0,.987.561,1.877,1.877,0,0,0,1.1,0,2.05,2.05,0,0,0,.873-.583,3.972,3.972,0,0,0,.674-1.068,9.647,9.647,0,0,0,.506-1.45l.52-1.932a9.626,9.626,0,0,0,.287-1.5,4.064,4.064,0,0,0-.045-1.271,2.092,2.092,0,0,0-.459-.956,1.883,1.883,0,0,0-.962-.558,1.978,1.978,0,0,0-1.126,0,2.2,2.2,0,0,0-.921.579,4.082,4.082,0,0,0-.725,1.059,7.783,7.783,0,0,0-.534,1.443Z" transform="translate(-676.591 -820.362)" fill="#012346"></path><path id="Path_619" data-name="Path 619" d="M709.957,922.992l2.176,1.451-1.722,9.4,4.872-7.3,2.2,1.468L709.93,939.33l-2.2-1.467,1.726-9.353-4.858,7.263-2.191-1.464Z" transform="translate(-677.71 -820.885)" fill="#012346"></path></g></g></svg> 